<svg id="visual" viewBox="0 0 900 600" width="900" height="600" xmlns="http://www.w3.org/2000/svg" xmlns:xlink="http://www.w3.org/1999/xlink" version="1.1"><path d="M496 600L511 580C526 560 556 520 576.3 480C596.7 440 607.3 400 601.7 360C596 320 574 280 557.2 240C540.3 200 528.7 160 552 120C575.3 80 633.7 40 662.8 20L692 0L900 0L900 20C900 40 900 80 900 120C900 160 900 200 900 240C900 280 900 320 900 360C900 400 900 440 900 480C900 520 900 560 900 580L900 600Z" fill="#ff0000" stroke-linecap="round" stroke-linejoin="miter"></path></svg>