<svg id="레이어_1" data-name="레이어 1" xmlns="http://www.w3.org/2000/svg" viewBox="0 0 83.83 53.6"><defs><style>.cls-1{fill:none;}.cls-1,.cls-2{stroke:#12100b;stroke-miterlimit:10;stroke-width:2px;}.cls-2{fill:#f7f7f7;}</style></defs><path class="cls-1" d="M20.5,22.29a1.42,1.42,0,0,1,0-.29,1.82,1.82,0,0,1,1.86-1.8H68.88a2.57,2.57,0,0,1,2.49,2.09L82.89,61.57a1.08,1.08,0,0,1,0,.31A1.84,1.84,0,0,1,81,63.65H29.45A2.58,2.58,0,0,1,27,61.57Z" transform="translate(-0.09 -15.2)"/><path class="cls-2" d="M65.58,65.68a2.54,2.54,0,0,1-2.43,2.12H3A1.83,1.83,0,0,1,1.09,66a1.15,1.15,0,0,1,0-.32L7.48,18.32A2.54,2.54,0,0,1,9.91,16.2H70.1A1.81,1.81,0,0,1,71.91,18a2.83,2.83,0,0,1,0,.29Z" transform="translate(-0.09 -15.2)"/><path class="cls-2" d="M60.58,60.68a2.54,2.54,0,0,1-2.43,2.12H9A1.83,1.83,0,0,1,7.09,61a1.15,1.15,0,0,1,0-.32l5.37-37.36a2.54,2.54,0,0,1,2.43-2.12H64.1A1.81,1.81,0,0,1,65.91,23a2.83,2.83,0,0,1,0,.29Z" transform="translate(-0.09 -15.2)"/></svg>