<svg xmlns="http://www.w3.org/2000/svg" width="55" height="42" viewBox="0 0 55 42">
  <defs>
    <style>
      .cls-1 {
        fill-rule: evenodd;
      }
    </style>
  </defs>
  <path class="cls-1" d="M13.244,41.526a0.759,0.759,0,0,1-.534-0.218,0.73,0.73,0,0,1-.176-0.771l3-8.28a0.73,0.73,0,0,1,.177-0.275L46.1,2.118A0.759,0.759,0,0,1,46.631,1.9l4.3,0h0a0.76,0.76,0,0,1,.533.217l3.3,3.248a0.731,0.731,0,0,1,0,1.047L22.235,38.39a0.752,0.752,0,0,1-.283.175l-8.457,2.919A0.767,0.767,0,0,1,13.244,41.526ZM16.9,32.911l-2.416,6.662,6.805-2.349L53.175,5.886,50.623,3.379l-3.68,0Z"/>
  <path class="cls-1" d="M41.128,7.593l5.708,5.638-1.02,1.007L40.109,8.6Z"/>
  <path id="Rounded_Rectangle_1" data-name="Rounded Rectangle 1" class="cls-1" d="M1.2,40.1h9.367a0.712,0.712,0,1,1,0,1.424H1.2A0.712,0.712,0,1,1,1.2,40.1Z"/>
</svg>
